Coordinates
version=1
nRows=29
nColumns=24
inDegrees=yes

Units are S.I. units (second, meters, Newtons, ...)
If the header above contains a line with 'inDegrees', this indicates whether rotational values are in degrees (yes) or radians (no).

endheader
time	pelvis_tilt	pelvis_list	pelvis_rotation	pelvis_tx	pelvis_ty	pelvis_tz	hip_flexion_r	hip_adduction_r	hip_rotation_r	knee_angle_r	ankle_angle_r	subtalar_angle_r	mtp_angle_r	hip_flexion_l	hip_adduction_l	hip_rotation_l	knee_angle_l	ankle_angle_l	subtalar_angle_l	mtp_angle_l	lumbar_extension	lumbar_bending	lumbar_rotation
      4.91000000	      5.23303976	      2.71409999	    -85.97036314	      0.04075575	      0.94344445	     -1.12613605	     24.36829692	    -10.01957027	     -5.23953532	     -1.40635102	      4.71793401	      4.63558740	      0.00000000	     -6.01000804	      8.81726833	     -6.08127710	     -7.07990385	     19.65943380	      2.59798183	      0.00000000	      0.00000000	      0.00000000	      0.00000000
      4.92000000	      4.94822685	      2.94686561	    -85.75436171	      0.03951582	      0.94313273	     -1.12100187	     24.26363522	     -9.71829818	     -5.48822889	     -1.27760111	      3.63200413	      4.03496092	      0.00000000	     -6.06454402	      8.40002074	     -5.79469829	     -7.08867548	     19.72982104	      2.42876911	      0.00000000	      0.00000000	      0.00000000	      0.00000000
      4.93000000	      4.68064508	      3.18032312	    -85.52287025	      0.03828941	      0.94279242	     -1.11585363	     24.19859800	     -9.43696303	     -5.74106156	     -1.22289528	      2.67973687	      3.37713610	      0.00000000	     -6.09815094	      7.99218917	     -5.54817184	     -7.14246107	     19.85047600	      2.37358691	      0.00000000	      0.00000000	      0.00000000	      0.00000000
      4.94000000	      4.42663725	      3.36299702	    -85.41860272	      0.03690299	      0.94249799	     -1.11055211	     24.14597709	     -9.10854475	     -5.78061296	     -1.25273980	      1.87553893	      2.54737452	      0.00000000	     -6.21162782	      7.60835180	     -5.49100388	     -7.15208059	     19.89977271	      2.34041934	      0.00000000	      0.00000000	      0.00000000	      0.00000000
      4.95000000	      4.17272215	      3.54286289	    -85.24853693	      0.03554484	      0.94225807	     -1.10524922	     24.11854079	     -8.81961751	     -6.08138298	     -1.37982248	      1.33769357	      2.17094196	      0.00000000	     -6.28662690	      7.20765523	     -5.42062521	     -7.24042198	     19.99849071	      2.39109885	      0.00000000	      0.00000000	      0.00000000	      0.00000000
      4.96000000	      3.88796925	      3.67664409	    -85.12822825	      0.03404105	      0.94212937	     -1.09989699	     24.07538173	     -8.47501101	     -6.32688090	     -1.56463136	      0.90279891	      1.85448760	      0.00000000	     -6.37878569	      6.76621446	     -5.47577915	     -7.37774066	     20.07275356	      2.47275778	      0.00000000	      0.00000000	      0.00000000	      0.00000000
      4.97000000	      3.60456947	      3.80312671	    -85.07591825	      0.03247320	      0.94206161	     -1.09453504	     24.07927699	     -8.12212067	     -6.63738295	     -1.83129134	      0.51279406	      1.81500415	      0.00000000	     -6.48018880	      6.34295744	     -5.53357044	     -7.50158104	     20.11109669	      2.46200946	      0.00000000	      0.00000000	      0.00000000	      0.00000000
      4.98000000	      3.29321730	      3.88357886	    -84.99522445	      0.03084290	      0.94214480	     -1.08912596	     24.04144101	     -7.75060667	     -7.03969139	     -2.14295468	      0.21959016	      1.85014132	      0.00000000	     -6.62038993	      5.87658924	     -5.55947478	     -7.64175017	     20.09894740	      2.41793886	      0.00000000	      0.00000000	      0.00000000	      0.00000000
      4.99000000	      2.99307055	      3.92181670	    -84.94820676	      0.02913757	      0.94234807	     -1.08368818	     23.99673348	     -7.38003231	     -7.45604896	     -2.52877251	      0.00027301	      1.96069416	      0.00000000	     -6.80743464	      5.42199783	     -5.58215416	     -7.77799302	     20.03546220	      2.32314770	      0.00000000	      0.00000000	      0.00000000	      0.00000000
      5.00000000	      2.70752177	      3.93027094	    -84.92121601	      0.02736328	      0.94267853	     -1.07821139	     23.94804754	     -7.01582842	     -7.85378463	     -2.97683565	     -0.11661736	      2.08658087	      0.00000000	     -7.00737906	      4.97303544	     -5.64305966	     -7.95152344	     19.93188974	      2.24934818	      0.00000000	      0.00000000	      0.00000000	      0.00000000
      5.01000000	      2.43552733	      3.93498897	    -84.92321931	      0.02550906	      0.94313223	     -1.07269618	     23.92129606	     -6.65639163	     -8.21671117	     -3.48144291	     -0.13431554	      2.24126254	      0.00000000	     -7.19423132	      4.53394986	     -5.72079492	     -8.15649895	     19.77289460	      2.17958494	      0.00000000	      0.00000000	      0.00000000	      0.00000000
      5.02000000	      2.18225463	      3.94304397	    -84.94263843	      0.02358257	      0.94370760	     -1.06717685	     23.91854960	     -6.31383878	     -8.55458499	     -4.03194796	     -0.07603830	      2.45065030	      0.00000000	     -7.36083001	      4.11367392	     -5.76915445	     -8.38783675	     19.53185016	      2.03320386	      0.00000000	      0.00000000	      0.00000000	      0.00000000
      5.03000000	      1.95459412	      3.94859870	    -84.97873076	      0.02163431	      0.94436332	     -1.06159984	     23.92629970	     -5.99679043	     -8.86574541	     -4.62295008	      0.07229012	      2.72201354	      0.00000000	     -7.53161644	      3.72411035	     -5.77201922	     -8.61865220	     19.22107565	      1.82873004	      0.00000000	      0.00000000	      0.00000000	      0.00000000
      5.04000000	      1.75134019	      3.94513187	    -85.01261558	      0.01967477	      0.94507667	     -1.05599291	     23.92080946	     -5.70599069	     -9.15741816	     -5.22318760	      0.27243352	      3.03370334	      0.00000000	     -7.67747924	      3.34981366	     -5.83175970	     -8.91639870	     18.89387834	      1.67770912	      0.00000000	      0.00000000	      0.00000000	      0.00000000
      5.05000000	      1.56160856	      3.93875435	    -85.04663297	      0.01770120	      0.94581824	     -1.05035115	     23.89793229	     -5.42655045	     -9.43674391	     -5.80910778	      0.48654125	      3.33261385	      0.00000000	     -7.78057217	      2.97363801	     -6.00725543	     -9.30429689	     18.59034474	      1.66784496	      0.00000000	      0.00000000	      0.00000000	      0.00000000
      5.06000000	      1.38416080	      3.91822805	    -85.06393686	      0.01571812	      0.94660118	     -1.04466065	     23.81989726	     -5.15918634	     -9.72916627	     -6.33711798	      0.72380459	      3.64423564	      0.00000000	     -7.85638591	      2.59394490	     -6.26038739	     -9.77339946	     18.27742009	      1.72991726	      0.00000000	      0.00000000	      0.00000000	      0.00000000
      5.07000000	      1.21629162	      3.88566676	    -85.07367881	      0.01370622	      0.94742278	     -1.03890385	     23.68360646	     -4.89417951	    -10.03074052	     -6.79007417	      0.93775095	      3.93676961	      0.00000000	     -7.93460035	      2.22019013	     -6.51014536	    -10.26018283	     17.92577271	      1.75332272	      0.00000000	      0.00000000	      0.00000000	      0.00000000
      5.08000000	      1.06182410	      3.83740602	    -85.06698030	      0.01166327	      0.94827805	     -1.03308854	     23.48198199	     -4.63319493	    -10.31054179	     -7.16388975	      1.12105967	      4.16656760	      0.00000000	     -8.01898260	      1.85472992	     -6.73141745	    -10.76448531	     17.53033806	      1.72160234	      0.00000000	      0.00000000	      0.00000000	      0.00000000
      5.09000000	      0.91996865	      3.79392641	    -85.04791332	      0.00960071	      0.94913366	     -1.02722648	     23.24422407	     -4.37308933	    -10.51738075	     -7.46916745	      1.23511758	      4.28336573	      0.00000000	     -8.07706502	      1.49493215	     -6.95702565	    -11.30743157	     17.11278070	      1.68033122	      0.00000000	      0.00000000	      0.00000000	      0.00000000
      5.10000000	      0.79711448	      3.79344874	    -85.01889869	      0.00751131	      0.94993694	     -1.02135603	     23.02425610	     -4.12185783	    -10.61524056	     -7.72170916	      1.29495501	      4.29797114	      0.00000000	     -8.05726618	      1.14859739	     -7.18494056	    -11.90440535	     16.66264619	      1.63915780	      0.00000000	      0.00000000	      0.00000000	      0.00000000
      5.11000000	      0.66245825	      3.77425954	    -84.96243697	      0.00541700	      0.95075966	     -1.01546573	     22.76593172	     -3.85102010	    -10.67678088	     -7.94375079	      1.32874651	      4.21617432	      0.00000000	     -8.02703895	      0.77540146	     -7.40852907	    -12.54473470	     16.22434971	      1.63167634	      0.00000000	      0.00000000	      0.00000000	      0.00000000
      5.12000000	      0.53772845	      3.79785932	    -84.89838040	      0.00328456	      0.95150665	     -1.00958006	     22.54447219	     -3.58156555	    -10.64966358	     -8.14275737	      1.36097329	      4.06993500	      0.00000000	     -7.91288558	      0.40447936	     -7.63291093	    -13.24551147	     15.75835366	      1.65665709	      0.00000000	      0.00000000	      0.00000000	      0.00000000
      5.13000000	      0.41122692	      3.83832536	    -84.80857856	      0.00116361	      0.95218300	     -1.00366963	     22.33141959	     -3.30297916	    -10.55142167	     -8.32934272	      1.39166449	      3.77005075	      0.00000000	     -7.74549596	      0.01606185	     -7.86919490	    -14.00950937	     15.31083822	      1.76848029	      0.00000000	      0.00000000	      0.00000000	      0.00000000
      5.14000000	      0.28983679	      3.87544095	    -84.72998376	     -0.00098026	      0.95277262	     -0.99776749	     22.12388358	     -3.01357757	    -10.37337879	     -8.53099634	      1.45408891	      3.34844985	      0.00000000	     -7.55527819	     -0.37697427	     -8.13370363	    -14.82655301	     14.90208042	      1.91033734	      0.00000000	      0.00000000	      0.00000000	      0.00000000
      5.15000000	      0.16141083	      3.91262865	    -84.63178908	     -0.00310604	      0.95333365	     -0.99186371	     21.89763005	     -2.72383450	    -10.22991360	     -8.70506810	      1.50905779	      3.00218163	      0.00000000	     -7.33860911	     -0.78581167	     -8.36228444	    -15.67997192	     14.45966454	      2.00542006	      0.00000000	      0.00000000	      0.00000000	      0.00000000
      5.16000000	      0.00865236	      3.95491226	    -84.52131902	     -0.00521309	      0.95386770	     -0.98596594	     21.65834000	     -2.41549764	    -10.13675516	     -8.83971259	      1.52686401	      2.72681219	      0.00000000	     -7.09092477	     -1.22822684	     -8.57718880	    -16.56776534	     13.98650821	      2.07960067	      0.00000000	      0.00000000	      0.00000000	      0.00000000
      5.17000000	     -0.16398265	      3.99126238	    -84.41100378	     -0.00737479	      0.95433834	     -0.98012449	     21.42427273	     -2.07181384	    -10.01818504	     -8.97854676	      1.55512955	      2.31856467	      0.00000000	     -6.82281906	     -1.70894787	     -8.81626896	    -17.49572157	     13.55647261	      2.21471734	      0.00000000	      0.00000000	      0.00000000	      0.00000000
      5.18000000	     -0.35959252	      4.03279499	    -84.29939693	     -0.00953285	      0.95477928	     -0.97430270	     21.18905936	     -1.70289299	     -9.93479410	     -9.09415393	      1.54893470	      1.93553687	      0.00000000	     -6.52945114	     -2.22490237	     -9.07913996	    -18.44573752	     13.09296762	      2.37316203	      0.00000000	      0.00000000	      0.00000000	      0.00000000
      5.19000000	     -0.55781780	      4.08318309	    -84.20468330	     -0.01171392	      0.95517472	     -0.96850645	     20.96259204	     -1.32059562	     -9.80567456	     -9.20141937	      1.54616176	      1.52084603	      0.00000000	     -6.20985948	     -2.75532956	     -9.39174933	    -19.41696676	     12.59272796	      2.58911402	      0.00000000	      0.00000000	      0.00000000	      0.00000000
